<mxfile host="app.diagrams.net" modified="2023-09-11T21:05:04.834Z" agent="Mozilla/5.0 (Macintosh; Intel Mac OS X 10_15_7) AppleWebKit/537.36 (KHTML, like Gecko) Chrome/114.0.0.0 Safari/537.36" etag="iF451zkQwu9mdqR9gHUZ" version="21.7.4" type="github">
  <diagram id="C5RBs43oDa-KdzZeNtuy" name="Page-1">
    <mxGraphModel dx="1026" dy="661" grid="1" gridSize="10" guides="1" tooltips="1" connect="1" arrows="1" fold="1" page="1" pageScale="1" pageWidth="827" pageHeight="1169" math="1" shadow="0">
      <root>
        <mxCell id="WIyWlLk6GJQsqaUBKTNV-0" />
        <mxCell id="WIyWlLk6GJQsqaUBKTNV-1" parent="WIyWlLk6GJQsqaUBKTNV-0" />
        <mxCell id="X5iJlTNoj8tmg3NEINCG-0" value="x&lt;br&gt;" style="ellipse;whiteSpace=wrap;html=1;aspect=fixed;" parent="WIyWlLk6GJQsqaUBKTNV-1" vertex="1">
          <mxGeometry x="20" y="130" width="80" height="80" as="geometry" />
        </mxCell>
        <mxCell id="X5iJlTNoj8tmg3NEINCG-1" value="$$\text{linear}_1(x)=W^{1}x+b^{1}$$" style="shape=or;whiteSpace=wrap;html=1;" parent="WIyWlLk6GJQsqaUBKTNV-1" vertex="1">
          <mxGeometry x="130" y="120" width="160" height="80" as="geometry" />
        </mxCell>
        <mxCell id="X5iJlTNoj8tmg3NEINCG-2" value="$$c_1$$" style="ellipse;whiteSpace=wrap;html=1;aspect=fixed;" parent="WIyWlLk6GJQsqaUBKTNV-1" vertex="1">
          <mxGeometry x="334" y="120" width="80" height="80" as="geometry" />
        </mxCell>
        <mxCell id="X5iJlTNoj8tmg3NEINCG-3" value="$$f(c_1)=5relu(c_1)$$" style="shape=or;whiteSpace=wrap;html=1;" parent="WIyWlLk6GJQsqaUBKTNV-1" vertex="1">
          <mxGeometry x="480" y="120" width="120" height="80" as="geometry" />
        </mxCell>
        <mxCell id="X5iJlTNoj8tmg3NEINCG-4" value="$$z_1$$" style="ellipse;whiteSpace=wrap;html=1;aspect=fixed;" parent="WIyWlLk6GJQsqaUBKTNV-1" vertex="1">
          <mxGeometry x="650" y="120" width="80" height="80" as="geometry" />
        </mxCell>
        <mxCell id="X5iJlTNoj8tmg3NEINCG-5" value="$$\text{linear}_2(x)=W^{2}x+b^{2}$$" style="shape=or;whiteSpace=wrap;html=1;" parent="WIyWlLk6GJQsqaUBKTNV-1" vertex="1">
          <mxGeometry x="827" y="120" width="153" height="80" as="geometry" />
        </mxCell>
        <mxCell id="X5iJlTNoj8tmg3NEINCG-6" value="$$c_2$$" style="ellipse;whiteSpace=wrap;html=1;aspect=fixed;" parent="WIyWlLk6GJQsqaUBKTNV-1" vertex="1">
          <mxGeometry x="1020" y="120" width="80" height="80" as="geometry" />
        </mxCell>
        <mxCell id="X5iJlTNoj8tmg3NEINCG-7" value="$$g(c_2)=c_2$$" style="shape=or;whiteSpace=wrap;html=1;" parent="WIyWlLk6GJQsqaUBKTNV-1" vertex="1">
          <mxGeometry x="1170" y="120" width="70" height="80" as="geometry" />
        </mxCell>
        <mxCell id="X5iJlTNoj8tmg3NEINCG-8" value="$$\tilde{y}$$" style="ellipse;whiteSpace=wrap;html=1;aspect=fixed;" parent="WIyWlLk6GJQsqaUBKTNV-1" vertex="1">
          <mxGeometry x="1270" y="140" width="40" height="40" as="geometry" />
        </mxCell>
        <mxCell id="X5iJlTNoj8tmg3NEINCG-9" value="$$y$$" style="ellipse;whiteSpace=wrap;html=1;aspect=fixed;" parent="WIyWlLk6GJQsqaUBKTNV-1" vertex="1">
          <mxGeometry x="1260" y="270" width="80" height="80" as="geometry" />
        </mxCell>
        <mxCell id="X5iJlTNoj8tmg3NEINCG-12" value="$$C(\tilde{y},y)=||y-\tilde{y}||_{2}$$" style="rounded=0;whiteSpace=wrap;html=1;" parent="WIyWlLk6GJQsqaUBKTNV-1" vertex="1">
          <mxGeometry x="1390" y="140" width="120" height="60" as="geometry" />
        </mxCell>
        <mxCell id="X5iJlTNoj8tmg3NEINCG-14" value="" style="endArrow=classic;html=1;rounded=0;" parent="WIyWlLk6GJQsqaUBKTNV-1" edge="1">
          <mxGeometry width="50" height="50" relative="1" as="geometry">
            <mxPoint x="80" y="169.66" as="sourcePoint" />
            <mxPoint x="150" y="169.66" as="targetPoint" />
          </mxGeometry>
        </mxCell>
        <mxCell id="X5iJlTNoj8tmg3NEINCG-17" value="" style="endArrow=classic;html=1;rounded=0;exitX=1;exitY=0.5;exitDx=0;exitDy=0;exitPerimeter=0;" parent="WIyWlLk6GJQsqaUBKTNV-1" source="X5iJlTNoj8tmg3NEINCG-1" target="X5iJlTNoj8tmg3NEINCG-2" edge="1">
          <mxGeometry width="50" height="50" relative="1" as="geometry">
            <mxPoint x="290" y="167" as="sourcePoint" />
            <mxPoint x="360" y="250" as="targetPoint" />
          </mxGeometry>
        </mxCell>
        <mxCell id="X5iJlTNoj8tmg3NEINCG-18" value="" style="endArrow=classic;html=1;rounded=0;" parent="WIyWlLk6GJQsqaUBKTNV-1" edge="1">
          <mxGeometry width="50" height="50" relative="1" as="geometry">
            <mxPoint x="410" y="159.66" as="sourcePoint" />
            <mxPoint x="480" y="159.66" as="targetPoint" />
          </mxGeometry>
        </mxCell>
        <mxCell id="X5iJlTNoj8tmg3NEINCG-19" value="" style="endArrow=classic;html=1;rounded=0;" parent="WIyWlLk6GJQsqaUBKTNV-1" edge="1">
          <mxGeometry width="50" height="50" relative="1" as="geometry">
            <mxPoint x="590" y="159.66" as="sourcePoint" />
            <mxPoint x="660" y="159.66" as="targetPoint" />
          </mxGeometry>
        </mxCell>
        <mxCell id="X5iJlTNoj8tmg3NEINCG-20" value="" style="endArrow=classic;html=1;rounded=0;entryX=0;entryY=0.5;entryDx=0;entryDy=0;entryPerimeter=0;" parent="WIyWlLk6GJQsqaUBKTNV-1" target="X5iJlTNoj8tmg3NEINCG-5" edge="1">
          <mxGeometry width="50" height="50" relative="1" as="geometry">
            <mxPoint x="730" y="159.66" as="sourcePoint" />
            <mxPoint x="800" y="159.66" as="targetPoint" />
          </mxGeometry>
        </mxCell>
        <mxCell id="X5iJlTNoj8tmg3NEINCG-21" value="&lt;br&gt;" style="text;html=1;align=center;verticalAlign=middle;resizable=0;points=[];autosize=1;strokeColor=none;fillColor=none;" parent="WIyWlLk6GJQsqaUBKTNV-1" vertex="1">
          <mxGeometry x="1220" y="308" width="20" height="30" as="geometry" />
        </mxCell>
        <mxCell id="X5iJlTNoj8tmg3NEINCG-22" value="" style="endArrow=classic;html=1;rounded=0;exitX=1;exitY=0.5;exitDx=0;exitDy=0;" parent="WIyWlLk6GJQsqaUBKTNV-1" source="X5iJlTNoj8tmg3NEINCG-8" edge="1">
          <mxGeometry width="50" height="50" relative="1" as="geometry">
            <mxPoint x="1320" y="159.66" as="sourcePoint" />
            <mxPoint x="1390" y="159.66" as="targetPoint" />
          </mxGeometry>
        </mxCell>
        <mxCell id="X5iJlTNoj8tmg3NEINCG-23" value="" style="endArrow=classic;html=1;rounded=0;entryX=0.066;entryY=0.992;entryDx=0;entryDy=0;entryPerimeter=0;" parent="WIyWlLk6GJQsqaUBKTNV-1" target="X5iJlTNoj8tmg3NEINCG-12" edge="1">
          <mxGeometry width="50" height="50" relative="1" as="geometry">
            <mxPoint x="1310" y="270" as="sourcePoint" />
            <mxPoint x="1380" y="270" as="targetPoint" />
          </mxGeometry>
        </mxCell>
        <mxCell id="X5iJlTNoj8tmg3NEINCG-24" value="" style="endArrow=classic;html=1;rounded=0;" parent="WIyWlLk6GJQsqaUBKTNV-1" edge="1">
          <mxGeometry width="50" height="50" relative="1" as="geometry">
            <mxPoint x="960" y="159.66" as="sourcePoint" />
            <mxPoint x="1030" y="159.66" as="targetPoint" />
          </mxGeometry>
        </mxCell>
        <mxCell id="X5iJlTNoj8tmg3NEINCG-25" value="" style="endArrow=classic;html=1;rounded=0;" parent="WIyWlLk6GJQsqaUBKTNV-1" target="X5iJlTNoj8tmg3NEINCG-8" edge="1">
          <mxGeometry width="50" height="50" relative="1" as="geometry">
            <mxPoint x="1240" y="159.66" as="sourcePoint" />
            <mxPoint x="1310" y="159.66" as="targetPoint" />
          </mxGeometry>
        </mxCell>
        <mxCell id="X5iJlTNoj8tmg3NEINCG-26" value="" style="endArrow=classic;html=1;rounded=0;" parent="WIyWlLk6GJQsqaUBKTNV-1" edge="1">
          <mxGeometry width="50" height="50" relative="1" as="geometry">
            <mxPoint x="1100" y="159.66" as="sourcePoint" />
            <mxPoint x="1170" y="159.66" as="targetPoint" />
          </mxGeometry>
        </mxCell>
      </root>
    </mxGraphModel>
  </diagram>
</mxfile>
